<?xml version="1.0" encoding="UTF-8" standalone="no"?> <svg width="512" height="512" viewBox="0 0 512 512" fill="none" xmlns="http://www.w3.org/2000/svg">
<path fill-rule="evenodd" clip-rule="evenodd" d="M128 24C70.5624 24 24 70.5624 24 128V384C24 441.438 70.5624 488 128 488H384C441.438 488 488 441.438 488 384V128C488 70.5624 441.438 24 384 24H128ZM40 128C40 79.3989 79.3989 40 128 40H384C432.601 40 472 79.3989 472 128V384C472 432.601 432.601 472 384 472H128C79.3989 472 40 432.601 40 384V128ZM289.495 128.633C277.517 98.2263 234.484 98.2265 222.506 128.633L125.949 373.739C120.281 388.127 127.35 404.385 141.738 410.053C156.126 415.721 172.384 408.652 178.052 394.264L210.458 312.001H301.543L333.949 394.264C339.617 408.652 355.875 415.721 370.263 410.053C384.651 404.385 391.72 388.127 386.052 373.739L289.495 128.633ZM237.392 134.498C244.047 117.605 267.954 117.605 274.609 134.498L371.165 379.603C373.594 385.769 370.565 392.737 364.399 395.166C358.233 397.595 351.265 394.566 348.836 388.4L314.433 301.069C313.228 298.011 310.276 296.001 306.989 296.001H205.012C201.725 296.001 198.773 298.011 197.568 301.069L163.165 388.4C160.736 394.566 153.768 397.595 147.602 395.166C141.436 392.737 138.406 385.769 140.836 379.603L237.392 134.498ZM263.444 171.636C262.239 168.578 259.287 166.568 256 166.568C252.714 166.568 249.762 168.578 248.557 171.636L213.326 261.069C212.356 263.532 212.667 266.316 214.156 268.504C215.646 270.692 218.122 272.001 220.769 272.001H291.232C293.879 272.001 296.355 270.692 297.845 268.504C299.334 266.316 299.645 263.532 298.675 261.069L263.444 171.636ZM256 196.395L279.482 256.001H232.519L256 196.395Z" fill="black"/>
</svg>
