<?xml version="1.0" encoding="UTF-8" standalone="no"?> <svg width="512" height="512" viewBox="0 0 512 512" fill="none" xmlns="http://www.w3.org/2000/svg">
<path fill-rule="evenodd" clip-rule="evenodd" d="M128 24C70.5624 24 24 70.5624 24 128V384C24 441.438 70.5624 488 128 488H384C441.438 488 488 441.438 488 384V128C488 70.5624 441.438 24 384 24H128ZM40 128C40 79.3989 79.3989 40 128 40H384C432.601 40 472 79.3989 472 128V384C472 432.601 432.601 472 384 472H128C79.3989 472 40 432.601 40 384V128ZM184 100C159.699 100 140 119.699 140 144V368C140 392.301 159.699 412 184 412H248C334.156 412 404 342.156 404 256C404 169.844 334.156 100 248 100H184ZM156 144C156 128.536 168.536 116 184 116H248C325.32 116 388 178.68 388 256C388 333.32 325.32 396 248 396H184C168.536 396 156 383.464 156 368V144ZM188 140C183.582 140 180 143.582 180 148V364C180 368.418 183.582 372 188 372H248C312.065 372 364 320.065 364 256C364 191.935 312.065 140 248 140H188ZM196 356V156H248C303.228 156 348 200.772 348 256C348 311.228 303.228 356 248 356H196Z" fill="black"/>
</svg>
