<?xml version="1.0" encoding="UTF-8" standalone="no"?> <svg width="512" height="512" viewBox="0 0 512 512" fill="none" xmlns="http://www.w3.org/2000/svg">
<path fill-rule="evenodd" clip-rule="evenodd" d="M128 24C70.5624 24 24 70.5624 24 128V384C24 441.438 70.5624 488 128 488H384C441.438 488 488 441.438 488 384V128C488 70.5624 441.438 24 384 24H128ZM40 128C40 79.3989 79.3989 40 128 40H384C432.601 40 472 79.3989 472 128V384C472 432.601 432.601 472 384 472H128C79.3989 472 40 432.601 40 384V128ZM168 100C152.536 100 140 112.536 140 128C140 143.464 152.536 156 168 156H316V272C316 318.392 278.392 356 232 356H168C152.536 356 140 368.536 140 384C140 399.464 152.536 412 168 412H232C309.32 412 372 349.32 372 272V144C372 119.699 352.301 100 328 100H168ZM156 128C156 121.373 161.373 116 168 116H328C343.464 116 356 128.536 356 144V272C356 340.483 300.483 396 232 396H168C161.373 396 156 390.627 156 384C156 377.373 161.373 372 168 372H232C287.228 372 332 327.228 332 272V148C332 143.582 328.418 140 324 140H168C161.373 140 156 134.627 156 128Z" fill="black"/>
</svg>
