<?xml version="1.0" encoding="UTF-8" standalone="no"?> <svg width="512" height="512" viewBox="0 0 512 512" fill="none" xmlns="http://www.w3.org/2000/svg">
<path fill-rule="evenodd" clip-rule="evenodd" d="M128 24C70.5624 24 24 70.5624 24 128V384C24 441.438 70.5624 488 128 488H384C441.438 488 488 441.438 488 384V128C488 70.5624 441.438 24 384 24H128ZM40 128C40 79.3989 79.3989 40 128 40H384C432.601 40 472 79.3989 472 128V384C472 432.601 432.601 472 384 472H128C79.3989 472 40 432.601 40 384V128ZM184 100C168.536 100 156 112.536 156 128V384C156 399.464 168.536 412 184 412C199.464 412 212 399.464 212 384V285.358L233.07 268.301L329.369 400.487C338.474 412.986 355.988 415.737 368.487 406.631C380.986 397.526 383.737 380.012 374.631 367.513L276.652 233.02L369.618 157.763C381.637 148.033 383.493 130.402 373.763 118.382C364.033 106.363 346.402 104.507 334.382 114.237L212 213.309V128C212 112.536 199.464 100 184 100ZM172 128C172 121.373 177.373 116 184 116C190.627 116 196 121.373 196 128V230.078C196 233.161 197.772 235.97 200.555 237.298C203.338 238.626 206.637 238.236 209.034 236.296L344.45 126.673C349.601 122.503 357.157 123.299 361.327 128.45C365.497 133.601 364.702 141.157 359.55 145.327L260.676 225.368C257.365 228.048 256.735 232.853 259.244 236.297L361.699 376.934C365.602 382.291 364.423 389.797 359.066 393.699C353.709 397.602 346.203 396.423 342.301 391.066L241.046 252.076C239.755 250.304 237.793 249.139 235.619 248.854C233.446 248.569 231.25 249.189 229.546 250.569L198.966 275.323C197.09 276.842 196 279.127 196 281.541V384C196 390.627 190.627 396 184 396C177.373 396 172 390.627 172 384V128Z" fill="black"/>
</svg>
