<?xml version="1.0" encoding="UTF-8" standalone="no"?> <svg width="512" height="512" viewBox="0 0 512 512" fill="none" xmlns="http://www.w3.org/2000/svg">
<path fill-rule="evenodd" clip-rule="evenodd" d="M128 24C70.5624 24 24 70.5624 24 128V384C24 441.438 70.5624 488 128 488H384C441.438 488 488 441.438 488 384V128C488 70.5624 441.438 24 384 24H128ZM40 128C40 79.3989 79.3989 40 128 40H384C432.601 40 472 79.3989 472 128V384C472 432.601 432.601 472 384 472H128C79.3989 472 40 432.601 40 384V128ZM184 100C168.536 100 156 112.536 156 128V368C156 392.301 175.699 412 200 412H352C367.464 412 380 399.464 380 384C380 368.536 367.464 356 352 356H212V128C212 112.536 199.464 100 184 100ZM172 128C172 121.373 177.373 116 184 116C190.627 116 196 121.373 196 128V364C196 368.418 199.582 372 204 372H352C358.627 372 364 377.373 364 384C364 390.627 358.627 396 352 396H200C184.536 396 172 383.464 172 368V128Z" fill="black"/>
</svg>
