<?xml version="1.0" encoding="UTF-8" standalone="no"?> <svg width="512" height="512" viewBox="0 0 512 512" fill="none" xmlns="http://www.w3.org/2000/svg">
<path fill-rule="evenodd" clip-rule="evenodd" d="M128 24C70.5624 24 24 70.5624 24 128V384C24 441.438 70.5624 488 128 488H384C441.438 488 488 441.438 488 384V128C488 70.5624 441.438 24 384 24H128ZM40 128C40 79.3989 79.3989 40 128 40H384C432.601 40 472 79.3989 472 128V384C472 432.601 432.601 472 384 472H128C79.3989 472 40 432.601 40 384V128ZM224 100C173.19 100 132 141.19 132 192C132 242.81 173.19 284 224 284H288C307.882 284 324 300.118 324 320C324 339.882 307.882 356 288 356H168C152.536 356 140 368.536 140 384C140 399.464 152.536 412 168 412H288C338.81 412 380 370.81 380 320C380 269.19 338.81 228 288 228H224C204.118 228 188 211.882 188 192C188 172.118 204.118 156 224 156H344C359.464 156 372 143.464 372 128C372 112.536 359.464 100 344 100H224ZM148 192C148 150.026 182.026 116 224 116H344C350.627 116 356 121.373 356 128C356 134.627 350.627 140 344 140H224C195.281 140 172 163.281 172 192C172 220.719 195.281 244 224 244H288C329.974 244 364 278.026 364 320C364 361.974 329.974 396 288 396H168C161.373 396 156 390.627 156 384C156 377.373 161.373 372 168 372H288C316.719 372 340 348.719 340 320C340 291.281 316.719 268 288 268H224C182.026 268 148 233.974 148 192Z" fill="black"/>
</svg>
